<?xml version="1.0" encoding="iso-8859-1"?>
<!-- Generator: Adobe Illustrator 19.0.0, SVG Export Plug-In . SVG Version: 6.00 Build 0)  -->
<svg version="1.1" id="Capa_1" xmlns="http://www.w3.org/2000/svg" xmlns:xlink="http://www.w3.org/1999/xlink" x="0px" y="0px"
	 viewBox="0 0 512.001 512.001" style="enable-background:new 0 0 512.001 512.001;" xml:space="preserve">
<g>
	<g>
		<path d="M505.336,174.314c-5.319-4.455-12.61-5.583-19.027-2.944c-5.338,2.195-10.578,7.749-12.459,13.205L457.222,232.8
			l-24.699,36.182l-8.331,5.075l0.805-1.875c4.38-10.205,0.032-22.109-9.899-27.099c-8.811-4.429-19.781-1.929-26.084,5.945
			l-38.309,47.864l-42.995,19.552c-23.688,10.771-40.353,33.511-43.492,59.343c-0.036,0.3-0.054,0.601-0.054,0.903l0.059,43.123
			c-3.045,0.363-5.849,1.503-8.222,3.214c-2.373-1.71-5.176-2.851-8.222-3.214l0.059-43.123c0-0.302-0.018-0.603-0.054-0.903
			c-3.139-25.832-19.804-48.571-43.492-59.343l-42.995-19.552l-38.309-47.864c-6.302-7.873-17.272-10.374-26.084-5.946
			c-9.932,4.991-14.28,16.895-9.9,27.1l0.805,1.875l-8.331-5.075L54.779,232.8l-16.628-48.225
			c-1.881-5.457-7.121-11.01-12.459-13.206c-6.418-2.639-13.708-1.512-19.027,2.944c-5.319,4.455-7.709,11.434-6.238,18.214
			l12.332,56.819c3.716,17.121,10.696,33.078,20.745,47.429l15.411,22.009c10.853,15.499,25.148,28.66,41.341,38.061
			c1.673,0.971,3.353,1.964,5.033,2.979c3.498,2.112,8.046,0.989,10.159-2.508c2.113-3.498,0.989-8.046-2.508-10.159
			c-1.754-1.06-3.508-2.096-5.255-3.11c-14.346-8.329-27.019-20-36.648-33.75l-15.411-22.009
			c-8.915-12.733-15.108-26.89-18.405-42.08L14.89,189.39c-0.441-2.032,0.746-3.286,1.277-3.73c0.53-0.445,1.975-1.395,3.897-0.603
			c1.387,0.57,3.608,2.924,4.097,4.343l16.951,49.165c0.215,0.623,0.512,1.215,0.884,1.76l26.158,38.319
			c0.593,0.868,1.364,1.6,2.262,2.147l27.749,16.905l8.549,16.056c1.331,2.499,3.89,3.923,6.537,3.923
			c1.173,0,2.363-0.28,3.471-0.869c3.607-1.921,4.974-6.401,3.054-10.008l-9.354-17.569l-9.82-22.882
			c-1.299-3.027-0.005-6.558,2.945-8.041c2.607-1.311,5.924-0.482,7.886,1.97l39.414,49.244c0.726,0.908,1.656,1.631,2.714,2.112
			l44.605,20.283c18.89,8.59,32.219,26.656,34.873,47.221l-0.058,42.54h-76.6c-0.708-18.211-3.695-30.563-9.089-37.617
			c-4.119-5.384-9.156-10.719-14.972-15.858c-3.063-2.707-7.739-2.417-10.444,0.645c-2.706,3.062-2.417,7.738,0.645,10.444
			c5.1,4.506,9.479,9.136,13.017,13.76c1.625,2.125,5.191,8.982,6.032,28.626h-1.042c-9.772,0-17.722,7.95-17.722,17.722v26.823
			c0,9.772,7.95,17.722,17.722,17.722h105.144c3.856,0,7.417-1.252,10.329-3.351c2.912,2.099,6.473,3.351,10.329,3.351h105.144
			c9.772,0,17.722-7.95,17.722-17.722v-26.823c0-9.772-7.95-17.722-17.722-17.722h-1.042c0.841-19.643,4.406-26.5,6.032-28.626
			c12.23-15.987,31.7-28.319,45.282-36.204c16.192-9.401,30.487-22.561,41.34-38.061l15.411-22.009
			c10.049-14.351,17.028-30.308,20.745-47.429l12.332-56.819C513.045,185.748,510.655,178.769,505.336,174.314z M248.595,466.22
			c0,1.612-1.312,2.924-2.923,2.924H140.528c-1.612,0-2.924-1.312-2.924-2.924v-26.823c0-1.612,1.312-2.924,2.924-2.924h105.144
			c1.612,0,2.923,1.312,2.923,2.924V466.22z M371.474,436.473c1.612,0,2.924,1.312,2.924,2.924v26.823
			c0,1.612-1.312,2.924-2.924,2.924H266.33c-1.612,0-2.923-1.312-2.923-2.924v-26.823c0-1.612,1.312-2.924,2.923-2.924H371.474z
			 M497.113,189.39l-12.333,56.818c-3.297,15.19-9.489,29.348-18.405,42.08l-15.411,22.009
			c-9.629,13.751-22.302,25.422-36.648,33.75c-14.672,8.518-35.777,21.933-49.606,40.011c-5.395,7.053-8.382,19.405-9.09,37.616
			h-76.6l-0.058-42.54c2.654-20.565,15.983-38.631,34.873-47.221l44.605-20.283c1.058-0.481,1.988-1.204,2.714-2.112l39.414-49.244
			c1.962-2.451,5.28-3.281,7.886-1.97c2.95,1.482,4.244,5.014,2.945,8.041l-9.82,22.882l-9.354,17.569
			c-1.921,3.607-0.553,8.088,3.054,10.008c1.108,0.59,2.298,0.869,3.471,0.869c2.646,0,5.207-1.424,6.537-3.923l8.549-16.056
			l27.749-16.905c0.898-0.547,1.669-1.279,2.262-2.147l26.158-38.319c0.372-0.545,0.669-1.136,0.884-1.76l16.951-49.165
			c0.489-1.418,2.71-3.772,4.097-4.342c1.924-0.794,3.366,0.158,3.897,0.603C496.366,186.104,497.553,187.358,497.113,189.39z"/>
	</g>
</g>
<g>
	<g>
		<path d="M393.892,104.434c-2.208-1.77-5.152-2.365-7.874-1.594c-4.89,1.385-16.163,4.804-30.706,10.604
			c-1.974-23.139-6.657-40.657-8.208-45.988c-0.805-2.761-2.913-4.953-5.639-5.864c-2.722-0.909-5.718-0.425-8.014,1.293
			c-4.205,3.145-17.606,13.562-32.8,29.337c-15.075-31.906-32.803-54.714-37.867-60.933c-1.672-2.054-4.147-3.231-6.791-3.231
			c-2.644,0-5.119,1.178-6.789,3.23c-5.065,6.219-22.789,29.024-37.863,60.923c-15.191-15.77-28.585-26.182-32.787-29.324
			c-2.299-1.721-5.296-2.203-8.018-1.294c-2.726,0.911-4.834,3.105-5.638,5.866c-1.551,5.327-6.233,22.842-8.208,45.985
			c-14.543-5.799-25.816-9.218-30.705-10.603c-2.724-0.773-5.668-0.176-7.875,1.593c-2.204,1.767-3.423,4.506-3.262,7.326
			c0.587,10.29,5.149,64.021,37.392,111.343c27.046,39.694,75.082,44.103,95.084,44.103c4.246,0,7.231-0.199,8.481-0.301
			c0.066-0.005,0.129-0.022,0.194-0.029c0.063,0.006,0.123,0.023,0.186,0.028c1.252,0.103,4.238,0.302,8.49,0.302
			c20.014,0,68.045-4.414,95.087-44.103c32.242-47.322,36.804-101.052,37.392-111.342
			C397.315,108.94,396.096,106.201,393.892,104.434z M335.17,80.368c2.059,8.816,4.696,22.664,5.762,39.169
			c-6.033,2.71-12.382,5.764-18.895,9.179c-0.092,0.048-0.183,0.096-0.275,0.144c-1.871,0.983-3.754,1.996-5.648,3.039
			c-0.096,0.053-0.195,0.104-0.29,0.156c-2.514-8.739-5.48-17.141-8.712-25.116C318.014,95.104,328.312,86.012,335.17,80.368z
			 M176.832,80.368c6.855,5.641,17.147,14.728,28.048,26.559c-3.233,7.975-6.2,16.379-8.715,25.12
			c-0.096-0.053-0.196-0.104-0.293-0.157c-1.894-1.043-3.778-2.056-5.649-3.039c-0.087-0.046-0.175-0.092-0.262-0.137
			c-6.511-3.413-12.858-6.466-18.89-9.176C172.136,103.03,174.774,89.183,176.832,80.368z M164.469,214.774
			c-24.681-36.225-31.958-76.539-34.074-95.101c10.814,3.517,29.629,10.331,50.206,20.863c0.868,0.445,1.733,0.891,2.592,1.341
			c0.537,0.281,1.076,0.567,1.615,0.854c1.067,0.568,2.13,1.138,3.183,1.713c0.336,0.183,0.672,0.37,1.008,0.555
			c1.15,0.635,2.293,1.273,3.425,1.918c-0.011,0.051-0.021,0.102-0.032,0.154c-0.207,0.968-0.408,1.939-0.602,2.914
			c-0.025,0.127-0.052,0.254-0.077,0.381c-0.189,0.955-0.37,1.914-0.546,2.875c-0.026,0.14-0.053,0.28-0.078,0.42
			c-0.169,0.935-0.33,1.872-0.486,2.812c-0.025,0.152-0.053,0.305-0.078,0.456c-0.175,1.068-0.342,2.14-0.5,3.214
			c-0.183,1.248-0.332,2.481-0.464,3.706c-0.039,0.364-0.072,0.724-0.106,1.086c-0.087,0.901-0.16,1.796-0.22,2.685
			c-0.024,0.356-0.05,0.713-0.07,1.068c-0.065,1.176-0.115,2.345-0.134,3.5c0,0.017-0.001,0.034-0.002,0.051
			c-0.019,1.175-0.008,2.336,0.018,3.489c0.008,0.339,0.021,0.674,0.033,1.011c0.029,0.849,0.07,1.692,0.123,2.53
			c0.021,0.334,0.041,0.669,0.065,1.001c0.082,1.096,0.178,2.184,0.3,3.259c0.003,0.024,0.004,0.048,0.007,0.072
			c0.126,1.104,0.278,2.194,0.444,3.276c0.048,0.312,0.101,0.621,0.152,0.931c0.132,0.8,0.274,1.595,0.426,2.383
			c0.06,0.309,0.118,0.618,0.181,0.925c0.209,1.017,0.43,2.026,0.672,3.022c0.008,0.031,0.014,0.062,0.021,0.093
			c0.253,1.034,0.528,2.053,0.815,3.065c0.08,0.282,0.165,0.561,0.247,0.842c0.223,0.755,0.454,1.504,0.695,2.246
			c0.091,0.282,0.181,0.564,0.275,0.843c0.317,0.946,0.646,1.885,0.991,2.81c0.011,0.029,0.021,0.059,0.032,0.088
			c0.361,0.965,0.741,1.915,1.132,2.857c0.105,0.253,0.213,0.503,0.32,0.755c0.301,0.708,0.609,1.41,0.925,2.106
			c0.116,0.255,0.231,0.511,0.349,0.764c0.41,0.88,0.828,1.752,1.261,2.611c0.012,0.023,0.022,0.047,0.034,0.07
			c0.452,0.896,0.919,1.777,1.395,2.65c0.121,0.223,0.245,0.443,0.368,0.664c0.369,0.665,0.744,1.323,1.125,1.974
			c0.132,0.225,0.263,0.452,0.397,0.676c0.485,0.814,0.976,1.62,1.479,2.412c0.011,0.018,0.022,0.036,0.033,0.053
			c0.525,0.826,1.061,1.638,1.603,2.442c0.13,0.193,0.263,0.383,0.394,0.575c0.424,0.62,0.853,1.232,1.287,1.838
			c0.142,0.198,0.282,0.396,0.425,0.592c0.545,0.75,1.094,1.493,1.651,2.222c0.007,0.009,0.013,0.018,0.02,0.027
			c0.58,0.758,1.167,1.502,1.759,2.236c0.131,0.162,0.262,0.321,0.393,0.482c0.469,0.576,0.941,1.144,1.416,1.705
			c0.143,0.169,0.286,0.339,0.43,0.507c1.197,1.399,2.409,2.752,3.632,4.058c0.126,0.135,0.253,0.267,0.379,0.401
			c0.499,0.528,0.998,1.049,1.499,1.562c0.14,0.143,0.279,0.287,0.419,0.429c1.238,1.255,2.479,2.465,3.718,3.627
			c0.116,0.108,0.231,0.214,0.346,0.322c0.515,0.48,1.03,0.952,1.543,1.416c0.129,0.116,0.258,0.233,0.387,0.349
			c1.241,1.112,2.473,2.178,3.691,3.196c0.1,0.084,0.199,0.165,0.299,0.248c0.514,0.427,1.025,0.846,1.533,1.257
			c0.067,0.054,0.135,0.111,0.201,0.165C210.051,248.79,181.908,240.37,164.469,214.774z M347.534,214.769
			c-17.434,25.588-45.56,34.011-65.877,36.596c8.207-6.604,17.327-15.426,24.895-26.471c2.31-3.371,1.45-7.976-1.921-10.286
			c-3.372-2.311-7.976-1.45-10.286,1.921c-12.87,18.781-30.863,30.29-38.35,34.539c-0.05-0.028-0.102-0.058-0.152-0.087
			c-0.162-0.093-0.328-0.187-0.5-0.287c-0.063-0.036-0.128-0.074-0.192-0.112c-0.172-0.1-0.347-0.202-0.528-0.309
			c-0.067-0.039-0.136-0.081-0.204-0.121c-0.184-0.109-0.371-0.22-0.564-0.336c-0.075-0.045-0.153-0.092-0.229-0.138
			c-0.191-0.115-0.384-0.232-0.582-0.353c-0.082-0.05-0.165-0.101-0.248-0.152c-0.202-0.124-0.408-0.251-0.618-0.382
			c-0.082-0.051-0.166-0.104-0.25-0.156c-0.216-0.135-0.434-0.273-0.657-0.414c-0.085-0.054-0.171-0.109-0.257-0.164
			c-0.227-0.145-0.458-0.293-0.692-0.445c-0.085-0.055-0.17-0.111-0.256-0.166c-0.237-0.154-0.478-0.312-0.722-0.473
			c-0.091-0.06-0.182-0.12-0.273-0.181c-0.248-0.164-0.499-0.333-0.752-0.504c-0.089-0.06-0.177-0.12-0.267-0.18
			c-0.259-0.176-0.522-0.355-0.787-0.538c-0.091-0.062-0.181-0.125-0.272-0.188c-0.266-0.184-0.535-0.372-0.806-0.563
			c-0.094-0.066-0.188-0.132-0.283-0.199c-0.275-0.195-0.554-0.394-0.834-0.596c-0.092-0.067-0.185-0.133-0.278-0.2
			c-0.287-0.208-0.577-0.42-0.869-0.635c-0.089-0.065-0.177-0.13-0.267-0.196c-0.3-0.222-0.602-0.448-0.906-0.678
			c-0.084-0.064-0.168-0.126-0.253-0.191c-0.31-0.235-0.623-0.475-0.937-0.717c-0.082-0.064-0.164-0.126-0.247-0.19
			c-0.321-0.249-0.644-0.503-0.969-0.76c-0.077-0.061-0.153-0.121-0.23-0.182c-0.336-0.267-0.674-0.54-1.013-0.815
			c-0.067-0.054-0.133-0.108-0.2-0.162c-0.352-0.287-0.705-0.579-1.06-0.875c-0.056-0.047-0.113-0.093-0.169-0.14
			c-0.367-0.307-0.737-0.62-1.107-0.937c-0.045-0.039-0.09-0.076-0.136-0.115c-0.397-0.341-0.796-0.688-1.196-1.041
			c-0.016-0.014-0.032-0.028-0.048-0.042c-3.791-3.344-7.672-7.186-11.356-11.52c-0.029-0.034-0.058-0.07-0.087-0.104
			c-0.374-0.442-0.747-0.888-1.117-1.34c-0.062-0.076-0.124-0.154-0.186-0.23c-0.337-0.414-0.672-0.831-1.004-1.253
			c-0.08-0.101-0.158-0.204-0.237-0.306c-0.312-0.4-0.623-0.802-0.931-1.21c-0.096-0.127-0.19-0.256-0.285-0.383
			c-0.288-0.386-0.576-0.773-0.86-1.165c-0.108-0.15-0.215-0.301-0.323-0.452c-0.269-0.376-0.537-0.753-0.802-1.135
			c-0.114-0.164-0.226-0.331-0.339-0.496c-0.255-0.373-0.509-0.748-0.76-1.127c-0.118-0.179-0.235-0.36-0.352-0.54
			c-0.241-0.37-0.481-0.741-0.717-1.116c-0.122-0.193-0.242-0.389-0.362-0.584c-0.227-0.367-0.454-0.735-0.676-1.107
			c-0.124-0.207-0.246-0.416-0.369-0.625c-0.215-0.366-0.429-0.733-0.639-1.104c-0.123-0.218-0.245-0.437-0.367-0.656
			c-0.204-0.367-0.406-0.735-0.605-1.106c-0.122-0.228-0.243-0.459-0.363-0.689c-0.193-0.369-0.385-0.74-0.573-1.113
			c-0.119-0.236-0.237-0.474-0.354-0.712c-0.183-0.372-0.364-0.745-0.542-1.121c-0.117-0.247-0.231-0.494-0.346-0.743
			c-0.172-0.374-0.342-0.749-0.508-1.127c-0.112-0.255-0.224-0.511-0.334-0.768c-0.161-0.377-0.32-0.755-0.476-1.136
			c-0.108-0.265-0.215-0.53-0.321-0.797c-0.15-0.378-0.297-0.759-0.441-1.141c-0.104-0.274-0.206-0.548-0.307-0.824
			c-0.139-0.381-0.275-0.765-0.408-1.15c-0.098-0.282-0.195-0.565-0.29-0.85c-0.128-0.384-0.252-0.772-0.374-1.16
			c-0.091-0.29-0.182-0.581-0.27-0.874c-0.117-0.387-0.229-0.778-0.339-1.169c-0.085-0.3-0.169-0.599-0.251-0.901
			c-0.105-0.391-0.205-0.784-0.304-1.178c-0.077-0.307-0.155-0.614-0.228-0.923c-0.094-0.395-0.182-0.794-0.269-1.193
			c-0.069-0.314-0.139-0.628-0.204-0.945c-0.082-0.399-0.158-0.802-0.233-1.205c-0.06-0.322-0.122-0.643-0.178-0.967
			c-0.07-0.404-0.133-0.812-0.197-1.219c-0.051-0.329-0.104-0.656-0.151-0.987c-0.058-0.409-0.108-0.823-0.159-1.235
			c-0.041-0.335-0.085-0.668-0.122-1.006c-0.045-0.415-0.082-0.833-0.121-1.251c-0.031-0.341-0.065-0.681-0.092-1.024
			c-0.033-0.422-0.056-0.849-0.082-1.275c-0.021-0.344-0.044-0.686-0.06-1.033c-0.02-0.431-0.029-0.867-0.041-1.302
			c-0.01-0.348-0.023-0.693-0.028-1.043c-0.006-0.443-0.001-0.892,0.001-1.339c0.002-0.346-0.002-0.689,0.005-1.037
			c0.008-0.46,0.029-0.925,0.046-1.388c0.013-0.342,0.02-0.682,0.037-1.026c0.025-0.483,0.062-0.972,0.096-1.46
			c0.023-0.329,0.04-0.656,0.067-0.987c0.045-0.549,0.105-1.103,0.163-1.657c0.029-0.275,0.05-0.547,0.082-0.823
			c0.096-0.833,0.205-1.672,0.329-2.516c0.224-1.527,0.472-3.045,0.733-4.558c0.128-0.775,0.277-1.555,0.422-2.333
			c0.131-0.705,0.259-1.411,0.397-2.113c0.2-1.014,0.413-2.031,0.631-3.049c0.092-0.433,0.183-0.866,0.278-1.298
			c0.264-1.197,0.54-2.396,0.827-3.595c0.048-0.199,0.095-0.399,0.144-0.598c2.892-11.893,7.002-24.14,12.225-36.407
			c0.073-0.172,0.121-0.35,0.181-0.526c12.036-28.158,27.222-50.218,35.483-61.185c8.262,10.966,23.449,33.027,35.486,61.188
			c0.06,0.179,0.109,0.36,0.184,0.536c5.218,12.257,9.326,24.495,12.217,36.38c0.052,0.216,0.104,0.433,0.156,0.649
			c0.284,1.183,0.555,2.365,0.816,3.545c0.099,0.448,0.193,0.899,0.289,1.348c0.214,1.002,0.424,2.003,0.621,3.001
			c0.142,0.721,0.274,1.446,0.408,2.17c0.141,0.76,0.286,1.521,0.417,2.277c0.261,1.516,0.509,3.037,0.734,4.567
			c1.207,8.216,1.11,16.326-0.289,24.104c-0.724,4.022,1.95,7.869,5.972,8.592c4.022,0.728,7.869-1.949,8.592-5.972
			c1.683-9.357,1.806-19.072,0.366-28.875c-0.158-1.073-0.325-2.142-0.499-3.208c-0.027-0.163-0.056-0.326-0.083-0.489
			c-0.155-0.93-0.314-1.857-0.481-2.782c-0.025-0.14-0.053-0.281-0.079-0.422c-0.175-0.96-0.357-1.918-0.545-2.872
			c-0.025-0.126-0.051-0.252-0.076-0.378c-0.194-0.975-0.395-1.948-0.602-2.917c-0.011-0.05-0.02-0.099-0.031-0.149
			c1.133-0.645,2.277-1.284,3.429-1.92c0.334-0.185,0.669-0.37,1.003-0.553c1.058-0.579,2.126-1.152,3.198-1.722
			c0.532-0.282,1.063-0.565,1.593-0.842c0.875-0.459,1.756-0.913,2.639-1.366c20.569-10.527,39.371-17.335,50.181-20.855
			C379.492,138.23,372.215,178.545,347.534,214.769z"/>
	</g>
</g>
<g>
</g>
<g>
</g>
<g>
</g>
<g>
</g>
<g>
</g>
<g>
</g>
<g>
</g>
<g>
</g>
<g>
</g>
<g>
</g>
<g>
</g>
<g>
</g>
<g>
</g>
<g>
</g>
<g>
</g>
</svg>
