<svg clip-rule="evenodd" fill-rule="evenodd" height="1.707in" image-rendering="optimizeQuality" shape-rendering="geometricPrecision" text-rendering="geometricPrecision" viewBox="0 0 1707 1707" width="1.707in" xmlns="http://www.w3.org/2000/svg"><g id="Layer_x0020_1"><path d="m1168 1707c-12 0-22-10-22-22v-351c0-29 44-29 44 0v351c0 12-10 22-22 22zm-628 0c-12 0-22-10-22-22v-351c0-29 44-29 44 0v351c0 12-10 22-22 22z"/><path d="m1260 130c-226-196-626-147-843-9-68 43-212 156-156 314 92-125 302-324 715-338 105-3 202 8 284 33z"/><path d="m1013 141c-495 0-706 286-761 387-53 99-26 210 86 349 40-78 167-269 492-344 2-1 4-1 7-1 6-2 13-3 20-5 353-71 544-46 600-35 107-226-173-351-444-351z"/><path d="m941 556c122 38 296 125 418 321 49-46 170-180 94-342-40-8-205-33-512 21z"/><path d="m839 576c-337 77-449 292-471 340 13 165 56 379 186 510 1 1 3 2 4 4 11 10 22 20 34 30 82 64 162 147 262 147 101 0 179-82 260-146 13-10 25-21 37-32 1-1 1-2 2-2 128-129 172-336 186-501-2-2-3-3-4-5-149-258-393-327-496-345zm-213 213c115 0 208 94 208 208 0 115-93 209-208 209s-208-94-208-209c0-114 93-208 208-208zm248 208c0-114 94-208 209-208 114 0 208 94 208 208 0 115-94 209-208 209-115 0-209-94-209-209zm-164 366c34-22 19 44 144 44s111-66 145-44c36 23-30 87-145 87s-180-64-144-87z"/><path d="m1083 833c-91 0-165 74-165 165s74 164 165 164 164-73 164-164-74-165-164-165zm-62 151c-10 0-37-18-50-26-25-14-3-52 22-37 26 14 61 27 47 52-4 7-11 11-19 11zm62-36c-29 0-22-37-22-67 0-28 43-28 43 0 0 30 7 67-21 67zm-112 89c26-15 55-40 69-15s-21 38-47 52c-3 2-7 3-11 3-22 0-30-29-11-40zm112 98c-29 0-22-37-22-66s43-29 43 0 7 66-21 66zm100-58c-10 0-37-18-50-25-25-14-3-52 22-38 26 15 61 28 47 52-4 7-11 11-19 11zm-39-93c-22 0-30-30-11-41 26-15 55-39 69-14 14 24-22 37-47 52-3 2-7 3-11 3z"/><path d="m536 921c26 14 62 27 47 52-4 7-11 11-18 11-11 0-38-18-50-26-25-14-4-52 21-37zm90-88c-91 0-165 74-165 165s74 164 165 164 165-73 165-164-74-165-165-165zm0 115c-28 0-22-37-22-67 0-28 44-28 44 0 0 30 7 67-22 67zm-42 74c14 25-22 38-47 52-4 2-8 3-11 3-22 0-31-29-11-40 26-15 54-40 69-15zm104-38c-22 0-31-30-11-41 26-15 54-39 69-14 14 24-22 37-47 52-4 2-8 3-11 3zm-84 85c0-29 44-29 44 0s7 66-22 66c-28 0-22-37-22-66zm73-17c-25-14-4-52 21-38 26 15 62 28 47 52-4 7-11 11-18 11-11 0-38-18-50-25z"/></g></svg>